<svg xmlns="http://www.w3.org/2000/svg" xmlns:xlink="http://www.w3.org/1999/xlink" version="1.1" x="0px" y="0px" viewBox="0 0 32 40" enable-background="new 0 0 32 32" xml:space="preserve"><g display="none"><g display="inline"><line fill="#000000" stroke="#666666" stroke-miterlimit="10" x1="0.39" y1="0.353" x2="31.61" y2="31.647"/><line fill="#000000" stroke="#666666" stroke-miterlimit="10" x1="0.39" y1="31.647" x2="31.61" y2="0.353"/></g></g><g display="none"><g display="inline"><g><rect x="15.5" y="-6.102" transform="matrix(0.7079 -0.7063 0.7063 0.7079 -6.6276 15.9732)" fill="#000000" width="1" height="44.205"/></g><g><rect x="-6.102" y="15.5" transform="matrix(0.7071 -0.7071 0.7071 0.7071 -6.6276 16.0001)" fill="#000000" width="44.205" height="1"/></g></g></g><g display="none"><g display="inline"><g><rect x="15.5" y="-6.102" transform="matrix(0.7079 -0.7063 0.7063 0.7079 -6.6276 15.9732)" fill="#000000" width="1" height="44.205"/></g><g><rect x="-6.102" y="15.5" transform="matrix(0.7071 -0.7071 0.7071 0.7071 -6.6276 16.0001)" fill="#000000" width="44.205" height="1"/></g></g></g><g><polygon points="29.877,-0.048 16,13.875 2.123,-0.048 -0.002,2.07 13.882,16 -0.002,29.931 2.123,32.048 16,18.125 29.877,32.048    32.002,29.931 18.118,16 32.002,2.07  "/></g><text x="0" y="47" fill="#000000" font-size="5px" font-weight="bold" font-family="'Helvetica Neue', Helvetica, Arial-Unicode, Arial, Sans-serif">Created by Alfredo @ IconsAlfredo.com</text><text x="0" y="52" fill="#000000" font-size="5px" font-weight="bold" font-family="'Helvetica Neue', Helvetica, Arial-Unicode, Arial, Sans-serif">from the Noun Project</text></svg>